<?xml version="1.0" encoding="utf-8"?>
<!-- Generator: Adobe Illustrator 16.0.0, SVG Export Plug-In . SVG Version: 6.00 Build 0)  -->
<!DOCTYPE svg PUBLIC "-//W3C//DTD SVG 1.1//EN" "http://www.w3.org/Graphics/SVG/1.1/DTD/svg11.dtd">
<svg version="1.1" id="Layer_1" xmlns="http://www.w3.org/2000/svg" xmlns:xlink="http://www.w3.org/1999/xlink" x="0px" y="0px"
	 width="243.944px" height="78.714px" viewBox="-191.696 -54.329 243.944 78.714"
	 enable-background="new -191.696 -54.329 243.944 78.714" xml:space="preserve">
<g>
	<path d="M-33.251-39.972c0,7.934-6.454,14.357-14.357,14.357h-129.729c-7.935,0-14.357-6.424-14.357-14.357l0,0
		c0-7.934,6.424-14.357,14.357-14.357h129.729C-39.705-54.33-33.251-47.906-33.251-39.972L-33.251-39.972z"/>
	<path d="M52.249,10.028c0,7.934-6.454,14.357-14.357,14.357H-91.838c-7.935,0-14.357-6.424-14.357-14.357l0,0
		c0-7.934,6.424-14.357,14.357-14.357H37.891C45.795-4.33,52.249,2.094,52.249,10.028L52.249,10.028z"/>
</g>
</svg>
