<?xml version="1.0" encoding="utf-8"?>
<!-- Generator: Adobe Illustrator 16.0.0, SVG Export Plug-In . SVG Version: 6.00 Build 0)  -->
<!DOCTYPE svg PUBLIC "-//W3C//DTD SVG 1.1//EN" "http://www.w3.org/Graphics/SVG/1.1/DTD/svg11.dtd">
<svg version="1.1" id="Layer_1" xmlns="http://www.w3.org/2000/svg" xmlns:xlink="http://www.w3.org/1999/xlink" x="0px" y="0px"
	 width="380.947px" height="270.349px" viewBox="-183.264 -130.059 380.947 270.349"
	 enable-background="new -183.264 -130.059 380.947 270.349" xml:space="preserve">
<path d="M186.77,50.231H108.86L94.079-127.933l-0.134-2.126h-1.834H32.32h-2.114h-1.528l-0.306,1.86L6.983-25.777l-19.314-102.315
	l-0.292-1.967h-1.369h-1.635h-63.594h-2.021l-0.252,2.153L-96.036,50.259h-77.138c-5.464-0.027-10.09,4.824-10.09,10.674v68.365
	c0,5.914,4.626,10.992,10.116,10.992H186.77c6.194,0,10.914-5.078,10.914-10.992V60.932
	C197.684,55.083,192.964,50.231,186.77,50.231 M54.532-78.324l9.491,128.555H24.397L54.532-78.324z M-41.389-77.805L-12.57,50.231
	h-37.512L-41.389-77.805z"/>
</svg>
