<?xml version="1.0" encoding="utf-8"?>
<!-- Generator: Adobe Illustrator 16.0.0, SVG Export Plug-In . SVG Version: 6.00 Build 0)  -->
<!DOCTYPE svg PUBLIC "-//W3C//DTD SVG 1.1//EN" "http://www.w3.org/Graphics/SVG/1.1/DTD/svg11.dtd">
<svg version="1.1" id="Layer_1" xmlns="http://www.w3.org/2000/svg" xmlns:xlink="http://www.w3.org/1999/xlink" x="0px" y="0px"
	 width="605.604px" height="213.984px" viewBox="-288.327 -101.884 605.604 213.984"
	 enable-background="new -288.327 -101.884 605.604 213.984" xml:space="preserve">
<g>
	<path d="M308.636,40.851h-61.672L235.261-100.18l-0.109-1.703h-1.438H186.37h-1.672h-1.203l-0.25,1.453l-16.938,81.078l-15.281-81
		l-0.234-1.531h-1.078h-1.312H98.089h-1.594l-0.203,1.703l-11.5,141.031H23.729c-4.359,0-8,3.844-8,8.438v54.109
		c0,4.703,3.641,8.703,8,8.703h284.906c4.906,0,8.641-4,8.641-8.703V49.288C317.276,44.679,313.542,40.851,308.636,40.851
		 M203.948-60.93l7.516,101.734h-31.359L203.948-60.93z M128.026-60.524l22.812,101.375h-29.703L128.026-60.524z"/>
	<path fill="#FFFFFF" d="M-53.521,19.023l-45.688,79.109c-5.328,9.281-13.516,13.969-24.156,13.969h-91.141
		c-10.688,0-18.797-4.688-24.219-13.969l-45.609-79.109c-5.281-9.172-5.344-18.594-0.016-27.906l45.625-79
		c5.422-9.359,13.562-14,24.219-14h91.125c10.641,0,18.812,4.641,24.141,13.969l45.719,79.016
		C-48.146,0.429-48.224,9.851-53.521,19.023"/>
	<path d="M-53.505-8.884l-45.703-79.031c-5.359-9.312-13.516-13.969-24.156-13.969h-91.141c-10.656,0-18.828,4.656-24.219,13.969
		l-45.609,79.031c-5.344,9.312-5.312,18.75,0.016,27.969l45.594,79.047c5.391,9.281,13.562,13.969,24.219,13.969h91.125
		c10.656,0,18.797-4.688,24.141-13.969l45.719-79.047C-48.208,9.851-48.146,0.429-53.505-8.884"/>
	<path fill="#FFFFFF" d="M-228.583,42.866v22.328c16.703,2.391,36.25,4.797,55.078,4.797c30.859,0,64.234-10.25,64.234-42.891
		c0-54.562-81.469-28.781-81.469-56.609c0-12.578,17.859-13.25,26.75-13.25c16.594,0,36.141,2.391,47.781,3.438v-20.922
		c-12.266-1.406-31.812-3.812-46.5-3.812c-21.953,0-63.641,4.812-63.641,40.312c0,52.891,79.625,26.188,79.625,55.328
		c0,16.109-24.859,16.109-35.734,16.109C-198.942,47.679-214.692,44.913-228.583,42.866"/>
</g>
</svg>
