<?xml version="1.0" encoding="utf-8"?>
<!-- Generator: Adobe Illustrator 16.0.0, SVG Export Plug-In . SVG Version: 6.00 Build 0)  -->
<!DOCTYPE svg PUBLIC "-//W3C//DTD SVG 1.1//EN" "http://www.w3.org/Graphics/SVG/1.1/DTD/svg11.dtd">
<svg version="1.1"
	 id="svg2" xmlns:svg="http://www.w3.org/2000/svg" xmlns:dc="http://purl.org/dc/elements/1.1/" xmlns:rdf="http://www.w3.org/1999/02/22-rdf-syntax-ns#" xmlns:cc="http://creativecommons.org/ns#"
	 xmlns="http://www.w3.org/2000/svg" xmlns:xlink="http://www.w3.org/1999/xlink" x="0px" y="0px" width="14px" height="7px"
	 viewBox="2 -1 14 7" enable-background="new 2 -1 14 7" xml:space="preserve">
<g id="path2987_1_">
	<path fill="#999999" d="M10,5.5c-0.092,0-0.183-0.025-0.263-0.074C9.59,5.334,9.5,5.173,9.5,5V3.5H3C2.724,3.5,2.5,3.276,2.5,3V2
		c0-0.276,0.224-0.5,0.5-0.5h6.5V0c0-0.173,0.09-0.334,0.237-0.425C9.817-0.475,9.908-0.5,10-0.5c0.076,0,0.153,0.018,0.224,0.053
		l5,2.5C15.393,2.138,15.5,2.311,15.5,2.5s-0.107,0.362-0.276,0.447l-5,2.5C10.153,5.482,10.076,5.5,10,5.5z"/>
	<path fill="#FFFFFF" d="M10,0l5,2.5L10,5V3H3V2h7V0 M10-1C9.817-1,9.635-0.95,9.474-0.851C9.18-0.668,9-0.347,9,0v1H3
		C2.448,1,2,1.448,2,2v1c0,0.553,0.448,1,1,1h6v1c0,0.347,0.18,0.668,0.474,0.851C9.635,5.95,9.817,6,10,6
		c0.153,0,0.306-0.035,0.447-0.105l5-2.5C15.786,3.225,16,2.879,16,2.5s-0.214-0.725-0.553-0.895l-5-2.5C10.306-0.965,10.153-1,10-1
		L10-1z"/>
</g>
</svg>
