<?xml version="1.0" encoding="utf-8"?>
<!-- Generator: Adobe Illustrator 16.0.0, SVG Export Plug-In . SVG Version: 6.00 Build 0)  -->
<!DOCTYPE svg PUBLIC "-//W3C//DTD SVG 1.1//EN" "http://www.w3.org/Graphics/SVG/1.1/DTD/svg11.dtd">
<svg version="1.1"
	 id="svg2" xmlns:svg="http://www.w3.org/2000/svg" xmlns:dc="http://purl.org/dc/elements/1.1/" xmlns:rdf="http://www.w3.org/1999/02/22-rdf-syntax-ns#" xmlns:cc="http://creativecommons.org/ns#"
	 xmlns="http://www.w3.org/2000/svg" xmlns:xlink="http://www.w3.org/1999/xlink" x="0px" y="0px" width="14px" height="7px"
	 viewBox="2 -1 14 7" enable-background="new 2 -1 14 7" xml:space="preserve">
<g id="path2987_1_">
	<path fill="#999999" d="M8,5.5c-0.077,0-0.153-0.018-0.224-0.053l-5-2.5C2.607,2.862,2.5,2.689,2.5,2.5s0.107-0.362,0.276-0.447
		l5-2.5C7.847-0.482,7.923-0.5,8-0.5c0.091,0,0.183,0.025,0.263,0.075C8.41-0.334,8.5-0.173,8.5,0v1.5H15c0.276,0,0.5,0.224,0.5,0.5
		v1c0,0.276-0.224,0.5-0.5,0.5H8.5V5c0,0.173-0.09,0.334-0.237,0.426C8.183,5.475,8.091,5.5,8,5.5z"/>
	<path fill="#FFFFFF" d="M8,0v2h7v1H8v2L3,2.5L8,0 M8-1C7.847-1,7.694-0.965,7.553-0.895l-5,2.5C2.214,1.775,2,2.121,2,2.5
		s0.214,0.725,0.553,0.895l5,2.5C7.694,5.965,7.847,6,8,6c0.183,0,0.365-0.05,0.526-0.149C8.82,5.668,9,5.347,9,5V4h6
		c0.553,0,1-0.447,1-1V2c0-0.552-0.447-1-1-1H9V0c0-0.347-0.18-0.668-0.474-0.851C8.365-0.95,8.183-1,8-1L8-1z"/>
</g>
</svg>
