<?xml version="1.0" encoding="utf-8"?>
<!-- Generator: Adobe Illustrator 16.0.0, SVG Export Plug-In . SVG Version: 6.00 Build 0)  -->
<!DOCTYPE svg PUBLIC "-//W3C//DTD SVG 1.1//EN" "http://www.w3.org/Graphics/SVG/1.1/DTD/svg11.dtd">
<svg version="1.1" id="Layer_1" xmlns="http://www.w3.org/2000/svg" xmlns:xlink="http://www.w3.org/1999/xlink" x="0px" y="0px"
	 width="344.083px" height="308.287px" viewBox="-166.317 -149.026 344.083 308.287"
	 enable-background="new -166.317 -149.026 344.083 308.287" xml:space="preserve">
<path fill="#FFFFFF" d="M171.977,25.154l-65.854,114.002c-7.662,13.357-19.465,20.127-34.789,20.127H-59.958
	c-15.395,0-27.082-6.77-34.883-20.127l-65.715-114.002c-7.662-13.197-7.754-26.738-0.045-40.188l65.76-113.863
	c7.777-13.449,19.488-20.129,34.883-20.129H71.334c15.324,0,27.127,6.68,34.789,20.129l65.875,113.863
	C179.731-1.585,179.616,11.956,171.977,25.154"/>
<path d="M172.022-15.034l-65.898-113.863c-7.662-13.426-19.418-20.129-34.789-20.129H-59.958c-15.348,0-27.105,6.703-34.883,20.129
	l-65.715,113.863c-7.707,13.426-7.662,26.99,0.023,40.258l65.691,113.908c7.777,13.357,19.535,20.129,34.883,20.129H71.334
	c15.371,0,27.082-6.771,34.789-20.129l65.875-113.908C179.639,11.956,179.731-1.608,172.022-15.034"/>
<path fill="#FFFFFF" d="M-80.224,59.532v32.16c24.062,3.453,52.174,6.908,79.348,6.908c44.441,0,92.545-14.754,92.545-61.781
	c0-78.66-117.387-41.492-117.387-81.588c0-18.117,25.732-19.078,38.564-19.078c23.881,0,52.084,3.432,68.826,4.941v-30.123
	c-17.703-2.037-45.883-5.467-67.018-5.467c-31.635,0-91.699,6.93-91.699,58.051c0,76.191,114.709,37.719,114.709,79.715
	c0,23.215-35.82,23.215-51.488,23.215C-37.542,66.441-60.234,62.484-80.224,59.532"/>
</svg>
