<?xml version="1.0" encoding="utf-8"?>
<!-- Generator: Adobe Illustrator 16.0.0, SVG Export Plug-In . SVG Version: 6.00 Build 0)  -->
<!DOCTYPE svg PUBLIC "-//W3C//DTD SVG 1.1//EN" "http://www.w3.org/Graphics/SVG/1.1/DTD/svg11.dtd">
<svg version="1.1" id="Layer_1" xmlns="http://www.w3.org/2000/svg" xmlns:xlink="http://www.w3.org/1999/xlink" x="0px" y="0px"
	 width="143.285px" height="391.621px" viewBox="0 0 143.285 391.621" enable-background="new 0 0 143.285 391.621"
	 xml:space="preserve">
<path d="M71.656,0c39.578,0,71.629,32.117,71.629,71.652v248.336c0,39.582-32.051,71.633-71.629,71.633l0,0
	C32.074,391.621,0,359.57,0,319.988V71.652C0,32.117,32.074,0,71.656,0L71.656,0z"/>
<path fill="#FFFFFF" d="M71.656,275.565c23.969,0,43.379,19.441,43.379,43.409c0,23.938-19.41,43.362-43.379,43.362
	c-23.952,0-43.378-19.424-43.378-43.362C28.278,295.007,47.705,275.565,71.656,275.565z"/>
<path fill="#FFFFFF" d="M71.656,152.454c23.969,0,43.379,19.426,43.379,43.396c0,23.935-19.41,43.362-43.379,43.362
	c-23.952,0-43.378-19.427-43.378-43.362C28.278,171.88,47.705,152.454,71.656,152.454z"/>
<path fill="#FFFFFF" d="M71.656,29.304c23.969,0,43.379,19.461,43.379,43.378c0,23.955-19.41,43.396-43.379,43.396
	c-23.952,0-43.378-19.441-43.378-43.396C28.278,48.766,47.705,29.304,71.656,29.304z"/>
</svg>
